<svg width="120" height="60" xmlns="http://www.w3.org/2000/svg">
  <g>
    <title>Boat Spring Boot</title>
    <path id="svg-boat"
          d="M0,0 l120,0 l-20,40 l-80,0 z"
          fill="url(#boat-boat)"/>
    <path id="boat-B"
          d="M29,35 m-9,-30 l15,7.5 l-15,7.5 l18,7.5 l-18,7.5 z"
          stroke="Crimson" stroke-width="3" stroke-miterlimit="100"
          fill="none"/>
    <path id="boat-o"
          d="M52,35 m-9,-9 l9,-9 l9,9 l-9,9 z"
          stroke="SaddleBrown" stroke-width="3" stroke-miterlimit="100"
          fill="none"/>
    <path id="boat-a"
          d="M75,35 m-9,-18 l14,0 l4,18 l-18,0 l16,-9"
          stroke="Orchid" stroke-width="3" stroke-miterlimit="100"
          fill="none"/>
    <path id="boat-t"
          d="M94.5,35 m-5,-18 l11,0 m-5.5,-7 l0,25 l5,-9"
          stroke="OliveDrab" stroke-width="3" stroke-miterlimit="100"
          fill="none"/>
    <text id="svg-spring"
          x="20" y="55" text-anchor="start"
          font-family="Helvetica, Arial, sans-serif" font-size="15"
          fill="#6CB33D">
      Spring
    </text>
    <text id="svg-boot"
          x="100" y="55" text-anchor="end"
          font-family="Helvetica, Arial, sans-serif" font-size="15"
          fill="#6CB33D">
      Boot
    </text>
  </g>

  <defs>
    <linearGradient id="boat-boat" x1="0%" y1="0%" x2="0%" y2="100%">
      <stop offset="0%" stop-color="BurlyWood"></stop>
      <stop offset="100%" stop-color="PapayaWhip"></stop>
    </linearGradient>
  </defs>
</svg>