<svg width="120" height="60" xmlns="http://www.w3.org/2000/svg">
  <title>Boat Spring Boot</title>
  <g>
    <g id="group-boat" fill="url(#color-boat)">
      <path id="element-boat"
            d="M0,0 l120,0 l-20,40 l-80,0 z"/>
      <g id="group-boat-chars"
         stroke-width="3" stroke-miterlimit="100"
         fill="none">
        <path id="element-B"
              d="M29,35 m-9,-30 l15,7.5 l-15,7.5 l18,7.5 l-18,7.5 z"
              stroke="Crimson"/>
        <path id="element-o"
              d="M52,35 m-9,-9 l9,-9 l9,9 l-9,9 z"
              stroke="SaddleBrown"/>
        <path id="element-a"
              d="M75,35 m-9,-18 l14,0 l4,18 l-18,0 l16,-9"
              stroke="Orchid"/>
        <path id="element-t"
              d="M94.5,35 m-5,-18 l11,0 m-5.5,-7 l0,25 l5,-9"
              stroke="OliveDrab"/>
      </g>
    </g>
    <g id="group-spring"
       font-family="Helvetica, Arial, sans-serif" font-size="15"
       fill="#6CB33D">
      <text id="element-spring"
            x="20" y="55" text-anchor="start">
        Spring
      </text>
      <text id="element-boot"
            x="100" y="55" text-anchor="end">
        Boot
      </text>
    </g>
  </g>
  <defs>
    <linearGradient id="color-boat" x1="0%" y1="0%" x2="0%" y2="100%">
      <stop offset="0%" stop-color="BurlyWood"/>
      <stop offset="100%" stop-color="PapayaWhip"/>
    </linearGradient>
  </defs>
</svg>